<svg xmlns="http://www.w3.org/2000/svg" viewBox="0 0 480 320" fill="none">
  <!-- Desktop mockup frame -->
  <rect x="40" y="20" width="400" height="260" rx="12" fill="#3a3836" />
  <rect x="40" y="20" width="400" height="28" rx="12" fill="#3a3836" />
  <rect x="40" y="44" width="400" height="236" fill="#f5f3ef" />
  <!-- Window dots -->
  <circle cx="60" cy="34" r="4" fill="#d4622b" />
  <circle cx="74" cy="34" r="4" fill="#928e8a" />
  <circle cx="88" cy="34" r="4" fill="#928e8a" />
  <!-- Header -->
  <rect x="64" y="58" width="90" height="10" rx="3" fill="#3a3836" opacity="0.2" />
  <!-- Team member row 1 -->
  <circle cx="84" cy="100" r="16" fill="#d4622b" opacity="0.8" />
  <rect x="108" y="92" width="80" height="8" rx="3" fill="#3a3836" opacity="0.25" />
  <rect x="108" y="104" width="50" height="6" rx="3" fill="#928e8a" opacity="0.3" />
  <rect x="340" y="94" width="60" height="14" rx="4" fill="#d4622b" opacity="0.15" />
  <!-- Team member row 2 -->
  <circle cx="84" cy="144" r="16" fill="#3a3836" opacity="0.3" />
  <rect x="108" y="136" width="70" height="8" rx="3" fill="#3a3836" opacity="0.25" />
  <rect x="108" y="148" width="60" height="6" rx="3" fill="#928e8a" opacity="0.3" />
  <rect x="340" y="138" width="60" height="14" rx="4" fill="#d4622b" opacity="0.15" />
  <!-- Team member row 3 -->
  <circle cx="84" cy="188" r="16" fill="#928e8a" opacity="0.4" />
  <rect x="108" y="180" width="85" height="8" rx="3" fill="#3a3836" opacity="0.25" />
  <rect x="108" y="192" width="45" height="6" rx="3" fill="#928e8a" opacity="0.3" />
  <rect x="340" y="182" width="60" height="14" rx="4" fill="#d4622b" opacity="0.15" />
  <!-- Team member row 4 -->
  <circle cx="84" cy="232" r="16" fill="#d4622b" opacity="0.5" />
  <rect x="108" y="224" width="75" height="8" rx="3" fill="#3a3836" opacity="0.25" />
  <rect x="108" y="236" width="55" height="6" rx="3" fill="#928e8a" opacity="0.3" />
  <rect x="340" y="226" width="60" height="14" rx="4" fill="#d4622b" opacity="0.15" />
  <!-- Divider lines -->
  <line x1="64" y1="122" x2="416" y2="122" stroke="#928e8a" stroke-width="0.5" opacity="0.2" />
  <line x1="64" y1="166" x2="416" y2="166" stroke="#928e8a" stroke-width="0.5" opacity="0.2" />
  <line x1="64" y1="210" x2="416" y2="210" stroke="#928e8a" stroke-width="0.5" opacity="0.2" />
</svg>
