<svg xmlns="http://www.w3.org/2000/svg" viewBox="0 0 280 480" fill="none">
  <!-- Phone mockup frame -->
  <rect x="20" y="10" width="240" height="460" rx="28" fill="#3a3836" />
  <rect x="30" y="50" width="220" height="390" rx="4" fill="#f5f3ef" />
  <!-- Notch -->
  <rect x="100" y="16" width="80" height="24" rx="12" fill="#f5f3ef" opacity="0.1" />
  <!-- Screen header -->
  <rect x="48" y="68" width="100" height="12" rx="4" fill="#3a3836" opacity="0.2" />
  <rect x="48" y="86" width="60" height="8" rx="3" fill="#928e8a" opacity="0.3" />
  <!-- Receipt card 1 -->
  <rect x="42" y="112" width="196" height="72" rx="8" fill="white" />
  <rect x="56" y="126" width="80" height="10" rx="3" fill="#3a3836" opacity="0.25" />
  <rect x="56" y="142" width="50" height="8" rx="3" fill="#928e8a" opacity="0.3" />
  <rect x="56" y="162" width="36" height="12" rx="3" fill="#d4622b" opacity="0.9" />
  <rect x="192" y="126" width="32" height="32" rx="6" fill="#d4622b" opacity="0.15" />
  <!-- Receipt card 2 -->
  <rect x="42" y="196" width="196" height="72" rx="8" fill="white" />
  <rect x="56" y="210" width="70" height="10" rx="3" fill="#3a3836" opacity="0.25" />
  <rect x="56" y="226" width="55" height="8" rx="3" fill="#928e8a" opacity="0.3" />
  <rect x="56" y="246" width="42" height="12" rx="3" fill="#d4622b" opacity="0.7" />
  <rect x="192" y="210" width="32" height="32" rx="6" fill="#d4622b" opacity="0.15" />
  <!-- Receipt card 3 -->
  <rect x="42" y="280" width="196" height="72" rx="8" fill="white" />
  <rect x="56" y="294" width="90" height="10" rx="3" fill="#3a3836" opacity="0.25" />
  <rect x="56" y="310" width="45" height="8" rx="3" fill="#928e8a" opacity="0.3" />
  <rect x="56" y="330" width="48" height="12" rx="3" fill="#d4622b" opacity="0.5" />
  <rect x="192" y="294" width="32" height="32" rx="6" fill="#d4622b" opacity="0.15" />
  <!-- Camera capture button -->
  <circle cx="140" cy="396" r="24" fill="#d4622b" opacity="0.9" />
  <rect x="130" y="388" width="20" height="16" rx="3" fill="#f5f3ef" />
  <!-- Home indicator -->
  <rect x="100" y="450" width="80" height="4" rx="2" fill="#f5f3ef" opacity="0.2" />
</svg>
