<svg xmlns="http://www.w3.org/2000/svg" fill="currentColor" viewBox="58 93 285 213"><path d="M196 99.2c-5 .4-7.3 1.5-7.9 3.9-.2.8-.5 12.5-.8 29.2-.1 10.3-.2 10.7-.9 11.3-1 .8-1.6-2.3-4.2-20.1-1.8-12.8-2.2-14.4-3.3-15-2.3-1.2-16.6 3.1-19.1 5.6-1.5 1.5-1.5.9-1.6 16.5-.3 24.8-.4 44.7-.3 44.5.1-.3.3-14.3.4-34.9.1-10.9.1-20.7.2-21.7.1-3.8 1.4-5.1 6.6-6.8 2.5-.8 2.3-.6-.9.8-2.9 1.3-4 2-4.5 2.9-.7 1.3-.8 7-1 46.6-.1 15.7-.1 15.9-.9 16.7-1.3 1.4-2.2.4-2.8-3.2-.3-1.5-.7-4-1-5.6s-.6-3.5-.7-4.2c-.4-2.9-1.6-10.1-2.3-14.1-.3-1.7-.7-3.8-.8-4.7-.3-2.3-1.5-9-2.1-11.8-.8-3.9-1-5.2-1.2-7.3-.4-3.4-.5-3.5-2.4-2.5-.5.3-1.7 1-2.7 1.5-9.5 5-19.6 12.7-27.7 21-6.5 6.5-10 11.2-15 19.7-5.4 9.1-11.2 23.7-13.5 34.3-.1.4-.4 1.7-.7 2.8-.7 2.5-2.5 12.6-3.4 18.1-.6 4.5-.6 4.5-3 5.7-4.5 2.2-4.9 3.3-4.9 14.6 0 7.8 0 7.7-.7 8s-.9 0-.3-.5l.5-.5-.1-4.9c-.4-12.1.6-15.5 5.1-17.3 2.1-.9 2.5-1.8 3.2-7.3.3-1.9.9-5.9 1.2-7.1.2-.7.3-1.6.4-2.2.1-.5.4-2.1.7-3.5s.7-3.2.9-4.1c2.3-12.1 9.3-29.4 16.4-40.4 8.5-13.3 21.5-25.7 35.4-33.8 1.3-.8 2.8-1.7 3.4-2.1 1.4-1 5.8-3.1 6.3-3.1 1.1 0 1.4 1.4 2.7 10.3.4 2.7.9 6 1.2 7.4.6 3.2 1.2 6.7 1.7 9.7.2 1.3.4 2.8.5 3.4.2.5.4 2 .6 3.3s.7 3.8 1 5.7c.7 3.6 1 5.6 1.7 10.4.5 3.5.6 3.9 1.3 3.9s1.1-.7 1.1-1.7l-.1-.9v.9c-.1 1.3-1 2-1.4 1.1-.2-.2-.4-1.5-.6-3-.6-3.9-1-6.1-1.7-10.4-.4-2.1-1-5.4-1.3-7.4-1.8-11-2.3-14.1-2.5-14.8-.1-.4-.6-3.1-1-6-1.5-10.4-1.8-11.6-2.8-12.1-.7-.3-4.2 1.4-9.3 4.6-8.2 5-11.5 7.4-17.9 13.1-1.3 1.1-2.5 2.2-2.8 2.4-1 .8-6.6 6.8-8.9 9.7-9.7 11.6-17.6 27.8-22.2 45.6-.7 2.5-.9 3.6-2.2 9.4-.6 2.9-1.1 5.9-1.9 10.6-1.1 7.4-1 7.1-3.2 8.2-2.8 1.2-3.5 2-4.3 4.4s-.9 3.6-1 10.9v7.1c-.1.3-.8.6-2.7 1-4.9.9-6.5 2.5-6.5 6.5 0 5.1 1.9 7 17.7 17.6.5.3 1.8 1.2 2.8 1.9 19.7 14 30.7 17.7 59.8 20.1 1.4.1 3.9.3 5.5.5 1.6.1 4.4.3 6.3.4 1.8.2 4.3.3 5.6.4 2.8.3 11.2.7 18.8 1 11.9.6 45.1.3 54.3-.4 1.4-.1 5.7-.4 9.5-.7 6.5-.4 9.5-.7 18-1.5 19.1-1.9 31.1-5.2 40.6-11.1 5.8-3.6 7.7-4.7 9.8-6.2 1.3-.9 4.4-2.9 6.8-4.6 15.3-10.3 17-11.9 17.5-16.1.6-4.7-1.2-6.9-6.3-8-3.2-.6-3 .2-3-7.8 0-11.5-.6-13.3-5-15.5-2.3-1.2-2.3-1.1-3.4-7.9-3.4-21.1-7.4-34.2-15-48.8-9.1-17.6-22-30.9-41.2-42.6-7.1-4.4-8.6-5-9.5-3.8-.4.6-.5 1-3 16.6-.5 3-.9 5.7-1.8 10.4-.9 5.3-1.4 8.3-1.9 11.3-.3 1.7-.8 4.6-1.1 6.6s-.7 4.6-.9 5.8c-.4 3.2-1 4-1.7 2.3-.4-.9-.8-20.2-.8-43.8 0-18.5 0-17.9-1.1-19.4-1.5-1.9-12.3-5.5-17.6-5.9-2.8-.3-3.2.4-4.1 6.3-.1.8-.3 2.3-.5 3.4-.1 1-.5 3.4-.7 5.2-.3 1.9-.8 5.1-1.1 7.1s-.6 4-.7 4.6c-.8 6-1.3 8.1-2.3 8.1-.7 0-.9-1-.9-6 0-2.6-.1-7.7-.2-11.4s-.3-10.1-.4-14.3c-.2-8.5-.2-9-1.7-10.4-1.8-1.5-7.7-2.2-14.6-1.7m10.1.4c3.2.5 4.6 1.3 5.4 3.2.4.9.4.8.7 15 .1 2.5.2 6.6.3 9.2.1 2.5.2 6.8.2 9.6 0 6.3.3 7.5 1.7 6.4.8-.5.9-1.2 1.7-6.7.4-2.7.8-5.3.9-5.7.1-.3.4-2 .6-3.6s.5-3.7.7-4.7c.1-1.1.4-3.2.7-4.8 1.1-9 1.3-9.4 5-8.9 6.5.8 15.9 4.3 17 6.3.6 1.2.6 2.4.7 26.1 0 22.1-.1 25.6-.4 15.5-.1-2-.1-11.5-.2-21.1 0-19.1-.1-19.5-1.1-20.7-1.6-1.7-6-3.4-12.7-4.7-6.4-1.3-6.3-1.3-6.8 2.6-.3 2.3-.7 5.1-1 5.8-.2.6-.5 3-1 7-.2 1.3-.5 2.9-.6 3.5-.2.6-.3 1.6-.4 2.3-.2 1.6-1.6 10.4-1.9 11.2-.4 1.5-1.4 2.2-2.4 1.5s-1-1.1-1.2-9.6c-.2-13.1-.3-20.3-.5-25.2-.2-8.7-.8-9.1-11.9-9.1-5.3 0-7.9.4-9.4 1.7s-1.5.9-1.8 18.5c-.1 3-.2 6.1-.2 6.9-.1.7-.2 4.6-.3 8.5-.1 8-.2 8.4-1.4 9.1-1.5.9-2.3-1.7-3.6-11.8-.1-.5-.2-1.3-.3-1.7-.1-.3-.4-2.4-.8-4.5-.3-2.2-.8-5.5-1.1-7.4-.3-1.8-.7-4.2-.8-5.2-.6-5.1-1.3-5.6-5.6-4.5-3.3.9-7.1 1.7-7.1 1.5 0-.5 8.8-2.7 10.4-2.7 2.1 0 2.4.9 4.2 14 1 7.2 1.4 9.7 1.7 11.2.2.8.4 2.5.6 3.7.8 5.8 1.5 7.5 2.8 6.1.5-.5.5-.5.5-4.9.1-7.7.7-34.1.8-34.9.2-1.7 2-3.2 4.2-3.7 2.6-.6 10.4-.7 13.7-.3m50.7 25.5c3.1 1.5 11.2 6.6 13.7 8.5.8.6 2.5 1.9 3.8 2.8 14.2 10.5 24.8 24 32.8 41.6 3.1 6.8 6.6 17.2 8.1 24.2.3 1.1.6 2.4.7 2.9.5 1.5 1.6 7.2 2.5 13.2 1.2 8.2 1.2 8.1 3.7 9.4 2.4 1.2 3 1.8 3.5 3.1.5 1.4.4 1.5-.4.2-.6-.8-1-1.2-3-2.4-2.5-1.5-2.7-1.7-3.1-3.2-.5-1.5-1.4-6.8-1.6-8.5-.3-2.7-2.1-11.8-2.8-14.4-.2-.7-.7-2.4-1.1-3.9-.4-1.4-.9-3.3-1.2-4.1s-.7-2.2-1-3.1c-.6-2.1-2.2-6.9-3-8.6-.3-.7-.6-1.4-.6-1.6s-1.3-3.1-3.9-8.3c-.3-.9-1.1-2.2-1.5-3-.5-.8-1.3-2.2-1.8-3-1.5-2.6-4.1-6.7-5.9-9.1-.9-1.2-1.9-2.6-2.3-3.1-4.7-6.3-13.5-14.5-22.3-20.6-.7-.4-2-1.4-3-2.1-3.7-2.6-11.9-7.2-12.8-7.2-.6 0-.8.4-1 2.2-.2 1.6-.4 2.8-1.2 7.3-.2.8-.5 2.6-.6 4-.2 1.3-.5 3.1-.8 4-.2.8-.5 2.6-.7 4-.2 1.3-.6 3.7-.9 5.2s-.6 3.4-.7 4.4c-.1 1.4-.5 3.5-1.3 8.1-.1.5-.3 1.6-.4 2.4-.2.8-.6 3.4-1 5.8-.4 2.3-.8 4.7-.9 5.3-.3 1.9-1.7 2.3-2.7 1-.4-.6-.4-.9-.5-6.1 0-6.8.2-7 .4-.3.1 5.2.3 6 1.1 6.3s1.2-.4 1.5-3.1c.4-3.1 1.1-7 1.5-9.4.2-1.2.6-3.6.9-5.5.3-1.8.6-3.9.8-4.7.3-1.5.8-4.4 1.7-9.7.3-1.5.6-3.7.8-4.8.3-2 .7-4.2 1-6.2.2-.5.4-2.3.6-4 1.1-7.4 1.3-7.7 4.9-5.9m-51.6 35.1c2.2.5 2.3.7 2.4 4.8.1 2.2.3 3.5.5 4.1.3.8.3.8-.1.6-.7-.4-.8-1-1-4.4-.1-4.9.4-4.6-7-4.5h-5.4l-.6.6c-.4.3-.6.7-.6.8s.1 0 .3-.2c.6-.9.9-.9 6.6-1h5.5l.5.5.5.6v2.9c0 4.8.2 5 3.9 6.2 7 2.2 15.3 8.3 14.2 10.4-.4.8-7.2 7.1-8 7.4-1 .4-1.3.2-3.3-1.3-9-7.2-22.2-6.1-22.3 1.9 0 3.8 3 5.9 10.7 7.5 18.6 3.8 25.8 9.8 25.3 21-.6 10.7-5.8 16.4-18.5 19.9-1.9.5-1.9.4-2 5.3-.1 5.8.5 5.4-7 5.4l-5.6-.1-.4-.5c-.5-.4-.5-.5-.6-4.2-.1-5.7 0-5.5-3.2-6.3-6.5-1.6-13.5-5.6-16.3-9.3-1.2-1.5-1-1.7 3.9-6.4 5.6-5.2 5-5.1 9-1.4 4.2 3.8 12.1 6 17.6 4.7 1.6-.3 1.2-.4-.6-.1-5.8 1-12.7-1-17.1-5.1-2.9-2.7-3.2-2.8-4.4-2.2-1.1.6-8.7 7.8-9.1 8.6-1.1 2.8 9.1 9.7 17 11.4 3 .6 3 .6 3 6.1v3.8l.5.6.5.6h5.8c7.7.1 7.3.3 7.2-5 0-5.3 0-5.4 3.1-6 6.9-1.4 14.3-7.1 16.1-12.4 5.1-15.4-3.2-25.1-24.6-28.7-6.9-1.2-10.6-4-10.1-7.9.8-6.9 13.4-7.8 21.4-1.5 3.1 2.5 3.4 2.5 5.4.8 2.9-2.4 6.7-6 6.9-6.5 1.1-2.1-7.4-8.5-14-10.6-2.1-.7-3.4-1.3-2.1-1.1 5.1 1.1 10.5 3.9 14 7.3 3.9 3.8 3.9 3.7-.3 7.7-5.9 5.8-6.4 6-9 3.9-3.9-3.1-8.5-4.8-13.1-4.8-5.6 0-8.3 1.7-8.4 5.4 0 3 1.9 4.7 6.5 5.8.9.2 2.9.7 4.3 1.2 1.5.4 2.8.8 3 .8s1.4.2 2.6.5c10.1 2.3 15.9 6.6 18.7 13.8l.6 1.6v9l-.6 1.8c-2.6 7.4-6.4 10.9-15.2 13.7-4.6 1.4-4.2 1-4.4 5.4-.2 4.1-.4 5.2-.9 5.6-2.3 1.7-13.1 1.4-14-.4-.3-.6-.8-6.5-.6-7.4.3-1.3-.5-2.1-2.4-2.5-6.6-1.6-11.1-4-15.8-8.3-3.1-2.9-2.8-4 2.6-8.4l1-1c.1-.2 1-1 1.9-1.8 3.4-2.8 3.5-2.8 6-.4 1 1 2.1 1.9 2.4 2.1.4.2 1.1.6 1.5.9 9 6 23.5 2.3 19.7-5-1-2.1-2.9-3.1-7.4-4-1.1-.2-2.7-.6-3.8-.9-1-.2-3.3-.8-5.1-1.3-15.3-3.6-21.4-12.7-17.7-26.2 1.1-4.2 5.8-9.5 10.3-11.5 2.3-1.1 4.7-2 5.5-2.3.4-.1.9-.4 1-.6.2-.4.6-5.7.4-6.2-.1-.6.3-1.9.8-2.5.8-.9 8.9-1.4 12-.8m-12.1 3.2c0 .5-.1 1.6 0 2.4.3 3.7-.3 4.5-3.5 5.6-11.3 3.7-17 14.4-13.8 25.6 2.1 7 10.7 12.3 23 14.1 5.6.9 10.2 3 11.2 5.3 1.3 2.8-.2 6.3-3.3 7.8-.7.3-1.2.6-1.1.6 2.3 0 5-3.4 5-6.2 0-4.2-3.1-6.1-13.3-8-12.7-2.4-19.7-7.2-21.5-14.6-2.7-10.9 3.1-20.8 14-24.4 2.9-1 3.3-1.3 3.5-3.3.1-1.7 0-6.3-.2-4.9M326.8 236c.2 3.1.3 8 0 9.9-.1 1.4-.2.9-.3-4.5 0-3.4-.1-6.7-.2-7.3-.1-1-.1-1.1.1-.7.1.3.3 1.5.4 2.6m-202-1.5c.6.5 1.4 2.1 1.4 3v9.2c0 9.7 0 9.6 1.7 10.5.5.3 6.2 1.1 8.7 1.3 1.1.1 2.3.2 2.7.3.5.1 1.8.3 2.9.4s3.3.4 4.9.6c5.1.6 8.4.9 12.6 1.1 2.2.2 5.2.4 6.5.5 10.3 1.3 18.1 1.6 37.3 1.6 13-.1 16.9-.2 21.1-.5 1.1-.1 3.3-.3 4.8-.4s3.8-.3 5.2-.5c1.3-.1 3.7-.3 5.3-.4 2.6-.1 8.9-.7 10-.9.2-.1 2-.3 4-.4 2-.2 4-.4 4.4-.4.5-.1 1.1 0 1.3 0 .7.3-2.2.7-8 1.2-1.4.2-3.1.3-3.9.4s-3.8.4-6.5.6-6.1.5-7.4.6c-1.4.1-5.1.3-8.4.5-3.3.1-8.4.4-11.3.6-5.2.3-24.5.3-27.8 0-.6-.1-3.2-.2-5.8-.3-2.7-.1-6.1-.3-7.7-.4-1.7-.1-5-.3-7.4-.5s-5-.4-5.7-.5c-.8-.1-2.7-.3-4.2-.5-1.6-.1-3.6-.4-4.5-.5s-2.3-.2-3.1-.3c-1.9-.1-4.7-.4-7-.7-1.1-.2-2.6-.4-3.5-.5s-2-.4-2.6-.5c-.6-.2-1.8-.3-2.6-.4-7.2-.7-6.8-.1-6.7-8.8l.1-6.2-.2 6.3c-.2 8.5-.5 8.1 5.4 8.8 1.8.2 3.6.5 4 .6 1.3.3 9.2 1.4 12.8 1.6.7.1 2.1.2 3 .3 8.2 1 13 1.4 19 1.8 1.7.1 3.6.2 4.2.3 12.3 1.2 39.8 1.1 56.9-.2 7.4-.6 11.4-.9 14.4-1.2 1.7-.1 4.9-.5 7.1-.7 4.5-.4 5.5-.5 10-1.2 1.6-.3 3.9-.6 5.1-.7 8.1-.8 7.4.3 7.4-11.8 0-10.2.1-10.4 1.1-11.6 1.4-1.6 3.8-.2 5.1 3.1.3.8.4 1.7.5 5.3.2 2.4.3 5.9.5 7.7.7 10.8.3 11.4-9.2 13.3-2 .3-23 2.8-27.1 3.1-.9 0-2.5.2-3.7.3-16.8 1.4-46.2 1.9-64.6 1.1-4.2-.2-7.7-.3-7.7-.3-.1.1.2.1.6.1.5 0 3.3.2 6.4.3 3.5.2 11.2.4 21.3.5 18.7.1 25.2-.1 42.9-1.4 2.1-.2 4.7-.4 5.8-.4 1.1-.1 2.8-.3 3.8-.4 1-.2 2.9-.4 4.1-.5s5.2-.6 8.9-1c6.1-.7 7-.8 6.7-.5-.2.2-4.6.9-8.3 1.3-2 .2-4.7.5-5.9.7-1.3.1-3.7.3-5.5.5-1.7.1-3.7.3-4.5.4-2.2.5-9.4 1-20.6 1.4-4.2.2-8.7.4-10 .4-3.2.2-23.8.2-27 0-1.5 0-5.6-.2-9.1-.3s-7.9-.3-9.6-.4-4.6-.3-6.4-.4-5-.3-7-.5c-1.9-.3-4.8-.6-6.4-.7-1.6-.2-3.5-.4-4.4-.5-1.6-.2-3-.4-9-.9-3.7-.3-6.6-.8-7.9-1.2-.5-.1-1.8-.4-2.9-.6-8-1.2-8.2-1.5-8.2-9.7 0-6.5.5-15.7.8-16.6.6-1.8 2.9-4.5 4-4.7.3-.1.6-.2.7-.2.4-.1 1.4.3 1.9.6m154.1.2c3 2 3.3 3.4 3.7 16.4.4 12.3-.3 13.7-7.3 14-2.1.2-1.8 0 1.2-.7 5.6-1.3 6.3-3.1 5.5-13.7-.1-1.8-.3-5.1-.3-7.3l-.2-3.9-.7-1.5c-1.1-2.2-2.3-3.2-3.6-3.2-2 0-2.8 2-2.8 6.9 0 4.4-.3 4.8-.5.6-.2-4.7-.1-5.5.6-6.7 1.1-1.7 2.8-2.1 4.4-.9m-156.4.1c-2.5.7-3.7 3.3-4 8.6-1.3 19.7-1.3 19.8 6.2 21.2 1.5.2 3.4.5 4.3.6 2 .3 8.5 1.1 11.2 1.5 1.1.2 3.6.4 5.6.6 1.9.1 5.4.4 7.6.6 2.3.3 5.1.5 6.3.5 2.1.1-4-.5-11.2-1.1-4.2-.4-7.3-.7-12.3-1.4-1.9-.2-4.7-.6-6.1-.8-11-1.3-12-2-12-8.6 0-3 .5-13.7.8-16 .3-2.9 3.1-6.2 4.8-5.6 1.1.5 1.4 1.2 1.6 4.3.1 1 .2 1.8.2 1.6.5-1.8-.5-5.4-1.5-5.9-.6-.4-.6-.4-1.5-.1m151.7 15.5c-.1.3-.1.1-.1-.5s0-.8.1-.5zm53.2.4c-.2.4-.8-.4-.8-1v-.8l.4.9c.3.5.4.9.4.9m5 1c4.7 1.5 5.4 8 1.3 12.1-1.8 1.8-2.3 1.9-.8.1 4.5-5.2 3.9-10.3-1.4-12.1-.8-.2-1.6-.5-1.7-.6-.2-.2 1.5.1 2.6.5m-261.7-.3c-.2.1-1 .3-1.9.5-2.9.7-3.9 1.8-4.5 4.8-.4 1.8.7 5.1 2.3 7 1.1 1.3.7 1.2-.5-.1-3.3-3.4-3.2-9.4.2-11.2 1.5-.8 5.6-1.7 4.4-1m203.9 3.3c0 2.9-1.3 3.6-6.9 4-2.3.1-1.8-.1 1.3-.7 3.8-.7 4.6-1.2 5-3.3.3-1.2.6-1.1.6 0m56.5 11.4c-.4.5-3 2.3-10.5 7.4-3.1 2.1-6.4 4.3-7.9 5.4-1.2.8-3.7 2.4-7.3 4.6-1.4.9-3.1 2-3.8 2.4-6.7 4.2-19.6 8.4-28 8.9-1.5.1-.8 0 3.6-.9 10.7-2.2 14.1-3.3 20.7-6.6.3-.2 1.5-.7 2.5-1.2s2.5-1.4 3.3-1.9c.8-.6 1.9-1.2 2.3-1.5.5-.3 1.6-.9 2.3-1.5 2.8-2 3.1-2.2 4.9-3.3 1.1-.6 2.1-1.4 2.4-1.6.3-.3 1.1-.8 1.7-1.1.6-.4 2.1-1.3 3.2-2.1 3.8-2.8 6.1-4.4 7-5 .5-.3 1.3-.9 1.7-1.2 1.4-1.1 2.5-1.6 1.9-.8M72 267.7c2.7 1.8 6.7 4.8 6.2 4.8s-7.4-4.7-8.5-5.8l-.7-.7 1 .5c.6.3 1.4.8 2 1.2m91 1.1c.6 0 2.3.2 3.8.2l2.6.1-3.1-.2c-3.4-.3-5.2-.4-3.3-.1m-81 6c1.7 1.1 3.7 2.4 4.5 2.9 2.1 1.4 4.3 2.9 5.7 4 2.9 2.1 8.8 5.2 15.4 8 4.6 2 18.3 4.9 26.1 5.6 3.4.3 7.9.8 10.2 1.1 2.4.3 3.9.4 8.2.6 1.6 0 3.5.2 4.1.3 1.4.2 5.7.5 10 .7 1.4 0 2.7.1 3 .2.4 0 2.9.1 5.6.2s7.1.3 9.6.4c5.1.3 36 .1 42.1-.1 5.4-.3 14.1-.8 16.6-1 1.1-.1 3.3-.3 4.7-.4 9.1-.7 12.1-.9 11.3-.6-.3.1-1.6.2-3 .4-1.4.1-3.2.3-4.1.4-1 .1-3.8.3-6.3.5-2.5.1-5.6.3-6.9.4-6.2.5-8.5.6-14.8.9-8.5.3-28.3.3-37.3.1-8.4-.2-17.3-.7-28.8-1.4-6.1-.4-7.2-.5-9.8-.8-1.2-.2-3.6-.4-5.1-.5-6.4-.5-19.1-2.1-23.7-3.1-9.4-1.9-17.7-5.2-24.8-10-.6-.4-1.5-1-2.1-1.3-1-.5-4.8-3-8.5-5.7-1-.7-2.3-1.6-3-2.1-3.6-2.4-2.7-2.1 1.1.3m189.6 20.3c-.7.3-2.8.5-2.6.3.1-.1 2.1-.4 2.8-.4.2 0 .2 0-.2.1m-4.1.6c-.6.2-4 .7-6.3.9-1.8.1-1.7-.2.2-.5 3.6-.5 4.4-.5 5.5-.5 1-.1 1.1 0 .6.1M220 112.3c-.2.6-.5 2.9-.4 3.6v.8l.1-.7c.5-1.8.7-4.8.3-3.7m-72.8 16c0 .3.1 1.2.3 2.3.2 1.5.6 1.9.5.5-.3-2.1-.7-3.4-.8-2.8m51.4 32c-.3.2.2.2 1.5.2h1.8c-.2-.2-2.8-.3-3.3-.2m-5.3 25.5c-.9.7-1.5 2.2-1.5 3.7v1.2l.2-1.1c.2-1.5.4-2.1 1.3-3.3.8-1.1.8-1.1 0-.5m15.6-.3c.2.3 1.8 1.1 2 1 .1-.1-1.1-.9-1.7-1.1-.3-.1-.4 0-.3.1m-11 10c.2.2 1.1.5 2.2.7 1.2.2.6-.2-.8-.6-1.3-.3-1.5-.4-1.4-.1m-9.6 25.7s.3.4.8.7c.8.6 1.3.8 1 .3-.3-.3-1.8-1.2-1.8-1m19.4 1.6c-.7.5-3.8 1.7-5 1.9-.3 0-.2.1.3.1 1.6 0 4.4-1 5.3-2 .6-.6.2-.6-.6 0m10.5 12c-.3.2-.6.4-.6.5s1.1-.5 1.2-.7c.2-.3.1-.3-.6.2m-19.8 14.6h1.2c.3-.1 0-.1-.7-.1-.6 0-.9 0-.5.1m74.6 7.5c-.8.8-.9 1-.3.8s1.3-.9 1.3-1.2c0-.4-.2-.3-1 .4m-109.2 4.8h.8c.2-.1 0-.1-.4-.1-.5 0-.6 0-.4.1m116.6 1.7c-.1.1-.5.3-1 .5-.4.2-.7.3-.5.3.3.1 1.5-.5 1.7-.7.1-.2 0-.3-.2-.1M196.1 99.5c-5.5.5-7.6 1.5-7.9 4.1-.1.8-.7 27.2-.8 34.9 0 4.4 0 4.4-.5 4.9-1.3 1.4-2-.3-2.8-6.1-.2-1.2-.4-2.9-.6-3.7-.3-1.5-.7-4-1.7-11.2-1.8-13.1-2.1-14-4.2-14-1.6 0-10.4 2.2-10.4 2.7 0 .2 3.8-.6 7.1-1.5 4.3-1.1 5-.6 5.6 4.5.1 1 .5 3.4.8 5.2.3 1.9.8 5.2 1.1 7.4.4 2.1.7 4.2.8 4.5.1.4.2 1.2.3 1.7 1.3 10.1 2.1 12.7 3.6 11.8 1.2-.7 1.3-1.1 1.4-9.1.1-3.9.2-7.8.3-8.5 0-.8.1-3.9.2-6.9.3-17.6.3-17.2 1.8-18.5s4.1-1.7 9.4-1.7c11.1 0 11.7.4 11.9 9.1.2 4.9.3 12.1.5 25.2.2 8.5.2 8.9 1.2 9.6s2 0 2.4-1.5c.3-.8 1.7-9.6 1.9-11.2.1-.7.2-1.7.4-2.3.1-.6.4-2.2.6-3.5.5-4 .8-6.4 1-7 .3-.7.7-3.5 1-5.8.5-3.9.4-3.9 6.8-2.6 6.7 1.3 11.1 3 12.7 4.7 1 1.2 1.1 1.6 1.1 20.7.1 9.6.1 19.1.2 21.1.3 10.1.4 6.6.4-15.5-.1-23.7-.1-24.9-.7-26.1-1.1-2-10.5-5.5-17-6.3-3.7-.5-3.9-.1-5 8.9-.3 1.6-.6 3.7-.7 4.8-.2 1-.5 3.1-.7 4.7s-.5 3.3-.6 3.6c-.1.4-.5 3-.9 5.7-.8 5.5-.9 6.2-1.7 6.7-1.4 1.1-1.7-.1-1.7-6.4 0-2.8-.1-7.1-.2-9.6-.1-2.6-.2-6.7-.3-9.2-.3-15.9-.3-15.1-1.7-16.6-1.5-1.6-7.3-2.3-14.4-1.7M165 111.7c-5.1 1.7-6.4 3-6.5 6.7-.1 1-.1 11-.2 22.3-.2 36-.2 37.6-1.6 37.6-.7 0-.8-.4-1.3-3.9-.7-4.8-1-6.8-1.7-10.4-.3-1.9-.8-4.4-1-5.7s-.4-2.8-.6-3.3c-.1-.6-.3-2.1-.5-3.4-.5-3-1.1-6.5-1.7-9.7-.3-1.4-.8-4.7-1.2-7.4-1.3-8.9-1.6-10.3-2.7-10.3-.5 0-4.9 2.1-6.3 3.1-.6.4-2.1 1.3-3.4 2.1-13.9 8.1-26.9 20.5-35.4 33.8-7.1 11-14.1 28.3-16.4 40.4-.2.9-.6 2.7-.9 4.1s-.6 3-.7 3.5c-.1.6-.2 1.5-.4 2.2-.3 1.2-.9 5.2-1.2 7.1-.7 5.5-1.1 6.4-3.2 7.3-4.5 1.8-5.5 5.2-5.1 17.3l.1 4.9-.5.5c-.6.5-.4.8.3.5s.7-.2.7-8c0-11.3.4-12.4 4.9-14.6 2.4-1.2 2.4-1.2 3-5.7.9-5.5 2.7-15.6 3.4-18.1.3-1.1.6-2.4.7-2.8 3.2-14.7 11.7-33.5 19.5-43.7 4-5.2 5.1-6.3 9-10.3 8.1-8.3 18.2-16 27.7-21 1-.5 2.2-1.2 2.7-1.5 1.9-1 2-.9 2.4 2.5.2 2.1.4 3.4 1.2 7.3.6 2.8 1.8 9.5 2.1 11.8.1.9.5 3 .8 4.7.7 4 1.9 11.2 2.3 14.1.1.7.4 2.6.7 4.2s.7 4.1 1 5.6c.6 3.6 1.5 4.6 2.8 3.2.8-.8.8-1 .9-16.7.2-39.6.3-45.3 1-46.6q.6-1.2 3.3-2.4c4.2-1.8 4.9-2.2 2-1.3m55.1 2.1c-.1.8-.3 1.8-.4 2.2l-.1.7v-.8c-.1-.7.2-3 .4-3.6.3-.7.3.1.1 1.5m33.4 10.6c-.5.4-1 3-1.6 6.6-.2 1.7-.4 3.5-.6 4-.3 2-.7 4.2-1 6.2-.2 1.1-.5 3.3-.8 4.8-.9 5.3-1.4 8.2-1.7 9.7-.2.8-.5 2.9-.8 4.7-.3 1.9-.7 4.3-.9 5.5-.4 2.4-1.1 6.3-1.5 9.4-.3 2.7-.7 3.4-1.5 3.1s-1-1.1-1.1-6.3c-.2-6.7-.4-6.5-.4.3.1 5.2.1 5.5.5 6.1 1 1.3 2.4.9 2.7-1 .1-.6.5-3 .9-5.3.4-2.4.8-5 1-5.8.1-.8.3-1.9.4-2.4.8-4.6 1.2-6.7 1.3-8.1.1-1 .4-2.9.7-4.4s.7-3.9.9-5.2c.2-1.4.5-3.2.7-4 .3-.9.6-2.7.8-4 .1-1.4.4-3.2.6-4 .8-4.5 1-5.7 1.2-7.3.2-1.8.4-2.2 1-2.2.9 0 9.1 4.6 12.8 7.2 1 .7 2.3 1.7 3 2.1 8.8 6.1 17.6 14.3 22.3 20.6.4.5 1.4 1.9 2.3 3.1 1.8 2.4 4.4 6.5 5.9 9.1.5.8 1.3 2.2 1.8 3 .4.8 1.2 2.1 1.5 3 2.6 5.2 3.9 8.1 3.9 8.3s.3.9.6 1.6c.8 1.7 2.4 6.5 3 8.6.3.9.7 2.3 1 3.1s.8 2.7 1.2 4.1c.4 1.5.9 3.2 1.1 3.9.7 2.6 2.5 11.7 2.8 14.4.2 1.7 1.1 7 1.6 8.5.4 1.5.6 1.7 3.1 3.2 2 1.2 2.4 1.6 3 2.4.8 1.3.9 1.2.4-.2-.5-1.3-1.1-1.9-3.5-3.1-2.5-1.3-2.5-1.2-3.7-9.4-.9-6-2-11.7-2.5-13.2-.1-.5-.4-1.8-.7-2.9-1.5-7-5-17.4-8.1-24.2-8-17.6-18.6-31.1-32.8-41.6-1.3-.9-3-2.2-3.8-2.8-2.5-1.9-10.6-7-13.7-8.5-2.1-1.1-2.9-1.3-3.3-.7m-105.9 4.8c.4 1.8.5 2.9.3 2.8-.3-.2-.8-3-.7-3.7.1-.4.3-.1.4.9m47.8 31c-2.1.3-3.4 1.7-3 3.3.2.5-.2 5.8-.4 6.2-.1.2-.6.5-1 .6-.8.3-3.2 1.2-5.5 2.3-4.5 2-9.2 7.3-10.3 11.5-3.7 13.5 2.4 22.6 17.7 26.2 1.8.5 4.1 1.1 5.1 1.3 1.1.3 2.7.7 3.8.9 4.5.9 6.4 1.9 7.4 4 3.8 7.3-10.7 11-19.7 5-.4-.3-1.1-.7-1.5-.9-.3-.2-1.4-1.1-2.4-2.1-2.5-2.4-2.6-2.4-6 .4-.9.8-1.8 1.6-1.9 1.8l-1 1c-5.4 4.4-5.7 5.5-2.6 8.4 4.7 4.3 9.2 6.7 15.8 8.3 1.9.4 2.7 1.2 2.4 2.5-.2.9.3 6.8.6 7.4.9 1.8 11.7 2.1 14 .4.5-.4.7-1.5.9-5.6.2-4.4-.2-4 4.4-5.4 8.8-2.8 12.6-6.3 15.2-13.7l.6-1.8v-9l-.6-1.6c-2.8-7.2-8.6-11.5-18.7-13.8-1.2-.3-2.4-.5-2.6-.5s-1.5-.4-3-.8c-1.4-.5-3.4-1-4.3-1.2-4.6-1.1-6.5-2.8-6.5-5.8.1-5.9 8.8-7.4 17.3-3.1 1.6.7 3.3 1.8 4.2 2.5 2.6 2.1 3.1 1.9 9-3.9 4.2-4 4.2-3.9.3-7.7-3.4-3.4-5-4.2-11.9-6.6-.8-.3-1.8-.6-2.1-.7-1.3-.2 0 .4 2.1 1.1 6.6 2.1 15.1 8.5 14 10.6-.2.5-4 4.1-6.9 6.5-2 1.7-2.3 1.7-5.4-.8-8-6.3-20.6-5.4-21.4 1.5-.5 3.9 3.2 6.7 10.1 7.9 20 3.4 28.3 11.7 25.4 25.6-1.6 7.6-8.3 13.7-16.9 15.5-3.1.6-3.1.7-3.1 6 .1 5.3.5 5.1-7.2 5H194l-.5-.6-.5-.6v-3.8c0-5.5 0-5.5-3-6.1-7.9-1.7-18.1-8.6-17-11.4.4-.8 8-8 9.1-8.6 1.2-.6 1.5-.5 4.4 2.2 7.3 6.8 20.5 7.3 23.4 1 2.2-4.8-2-8.5-11.1-9.9-12.3-1.8-20.9-7.1-23-14.1-3.2-11.2 2.5-21.9 13.8-25.6 3.3-1.1 3.8-1.9 3.5-5.6-.2-2.2.1-3.6.8-4.4l.6-.6h5.5c7.4-.1 6.9-.4 7 4.5.2 3.4.3 4 1 4.4.4.2.4.2.1-.6-.2-.6-.4-1.9-.5-4.1-.1-4.1-.2-4.3-2.4-4.8-1.5-.3-7.3-.3-9.8 0m6.5.3h-1.8c-1.3 0-1.8 0-1.5-.2.5-.1 3.1 0 3.3.2m-8.6 25.8c-.9 1.2-1.1 1.8-1.3 3.3l-.2 1.1v-1.2c0-1.5.6-3 1.5-3.7.8-.6.8-.6 0 .5m17-.3c.4.2.6.4.6.5-.2.1-1.8-.7-2-1s.5-.1 1.4.5m-11 9.6c1.4.4 2 .8.8.6-1.1-.2-2-.5-2.2-.7-.1-.3.1-.2 1.4.1m-9.2 26.6c.3.5-.2.3-1-.3-.5-.3-.8-.7-.8-.7 0-.2 1.5.7 1.8 1m18.2.6c-.9 1-3.7 2-5.3 2-.5 0-.6-.1-.3-.1 1.2-.2 4.3-1.4 5-1.9.8-.6 1.2-.6.6 0m118 11.3c.1.6.2 3.9.2 7.3.1 5.4.2 5.9.3 4.5.4-3 .1-11.3-.4-12.5-.2-.4-.2-.3-.1.7m-203.4-.2c-.1 0-.4.1-.7.2-1.1.2-3.4 2.9-4 4.7-.3.9-.8 10.1-.8 16.6 0 8.2.2 8.5 8.2 9.7 1.1.2 2.4.5 2.9.6 1.3.4 4.2.9 7.9 1.2 6 .5 7.4.7 9 .9.9.1 2.8.3 4.4.5 1.6.1 4.5.4 6.4.7 2 .2 5.2.4 7 .5s4.7.3 6.4.4 6.1.3 9.6.4 7.6.3 9.1.3c3.2.2 23.8.2 27 0 1.3 0 5.8-.2 10-.4 11.2-.4 18.4-.9 20.6-1.4.8-.1 2.8-.3 4.5-.4 1.8-.2 4.2-.4 5.5-.5 1.2-.2 3.9-.5 5.9-.7 3.7-.4 8.1-1.1 8.3-1.3.3-.3-.6-.2-6.7.5-3.7.4-7.7.9-8.9 1s-3.1.3-4.1.5c-1 .1-2.7.3-3.8.4-1.1 0-3.7.2-5.8.4-17.6 1.3-24.2 1.5-42.9 1.4-16.2-.2-27.9-.6-35.1-1.3-1-.1-3-.3-4.6-.4-1.6-.2-4.6-.4-6.7-.6-2.2-.2-4.8-.5-5.8-.5-1.9-.1-3.4-.3-10.7-1.3-2.5-.3-5.1-.7-6-.8-10.8-1.2-11.6-2.1-11-13 .6-11.7.7-12.9 1.3-14.1 1.2-2.4 3.4-3.9 4.7-3.3 1.4.8 1.6 2.1 1.5 13.1 0 10.5-.5 9.7 6.7 10.4.8.1 2 .2 2.6.4.6.1 1.7.4 2.6.5s2.4.3 3.5.5c2.3.3 5.1.6 7 .7.8.1 2.2.2 3.1.3s2.9.4 4.5.5c1.5.2 3.4.4 4.2.5.7.1 3.3.3 5.7.5s5.7.4 7.4.5c1.6.1 5 .3 7.7.4 2.6.1 5.2.2 5.8.3 3.3.3 22.6.3 27.8 0 2.9-.2 8-.5 11.3-.6 3.3-.2 7-.4 8.4-.5 1.3-.1 4.7-.4 7.4-.6s5.7-.5 6.5-.6 2.5-.2 3.9-.4c5.8-.5 8.7-.9 8-1.2-.2 0-.8-.1-1.3 0-.4 0-2.4.2-4.4.4-2 .1-3.8.3-4 .4-1.1.2-7.4.8-10 .9-1.6.1-4 .3-5.3.4-1.4.2-3.7.4-5.2.5s-3.7.3-4.8.4c-4.2.3-8.1.4-21.1.5-19.2 0-27-.3-37.3-1.6-1.3-.1-4.3-.3-6.5-.5-4.2-.2-7.5-.5-12.6-1.1-1.6-.2-3.8-.5-4.9-.6s-2.4-.3-2.9-.4c-.4-.1-1.6-.2-2.7-.3-2.5-.2-8.2-1-8.7-1.3-1.7-.9-1.7-.8-1.7-10.5v-9.2c0-1.8-1.9-3.9-3.3-3.6m152.9.4c-1.8 1-2.1 2.4-1.9 8 .2 4.2.5 3.8.5-.6 0-4.9.8-6.9 2.8-6.9 1.3 0 2.5 1 3.6 3.2l.7 1.5.2 3.9c0 2.2.2 5.5.3 7.3.8 10.6.1 12.4-5.5 13.7-3 .7-3.3.9-1.2.7 5.3-.2 7.1-1.8 7.4-6.2.3-3.3-.4-18.7-1-20.5-.8-2.9-4-5.1-5.9-4.1m-57 .3c-.1.2-1.2.8-1.2.7s1.2-.9 1.3-.9c0 0 0 .1-.1.2m55.3 15.2c0 .6 0 .8.1.5v-1c-.1-.3-.1-.1-.1.5m52.5-.1c0 .5.1.7.4.9.5.3.5.2 0-.8l-.4-.9zm-127-.3h-1.2c-.4-.1-.1-.1.5-.1.7 0 1 0 .7.1m130.2 1.8c.1.1.9.4 1.7.6 5.3 1.8 5.9 6.9 1.4 12.1-1.5 1.8-1 1.7.8-.1 4.1-4.1 3.4-10.6-1.3-12.1-1.1-.4-2.8-.7-2.6-.5m-261.5.4c-3.6 1.2-4.6 2.5-4.5 6.2.1 2.6.6 4.1 2.3 5.8 1.2 1.3 1.6 1.4.5.1-1.6-1.9-2.7-5.2-2.3-7 .6-3 1.6-4.1 4.5-4.8.9-.2 1.7-.4 1.9-.5.6-.4-1-.2-2.4.2m205.7 3.1c-.4 2.1-1.2 2.6-5 3.3-3.1.6-3.6.8-1.3.7 5.6-.4 6.9-1.1 6.9-4 0-1.1-.3-1.2-.6 0m0 1.8c0 .3-.7 1-1.3 1.2s-.5 0 .3-.8c.8-.7 1-.8 1-.4m-109.4 5.2h-.8c-.2-.1-.1-.1.4-.1.4 0 .6 0 .4.1m116 1.8c-.2.2-1.4.8-1.7.7-.2 0 .1-.1.5-.3.5-.2.9-.4 1-.5.2-.2.3-.1.2.1m50 2.4c-.3.2-.9.6-1.4 1-.4.3-1.2.9-1.7 1.2-.9.6-3.2 2.2-7 5-1.1.8-2.6 1.7-3.2 2.1-.6.3-1.4.8-1.7 1.1-.3.2-1.3 1-2.4 1.6-1.8 1.1-2.1 1.3-4.9 3.3-.7.6-1.8 1.2-2.3 1.5-.4.3-1.5.9-2.3 1.5-.8.5-2.3 1.4-3.3 1.9s-2.2 1-2.5 1.2c-6.6 3.3-10 4.4-20.7 6.6-4.4.9-5.1 1-3.6.9 8.4-.5 21.3-4.7 28-8.9.7-.4 2.4-1.5 3.8-2.4 3.6-2.2 6.1-3.8 7.3-4.6 1.5-1.1 4.8-3.3 7.9-5.4 9.4-6.4 10.9-7.5 10.6-7.8zm-260.9.8c.7.7 6.7 4.9 7.8 5.5 2.9 1.4-3.9-3.7-7.5-5.7l-1-.5zm9.4 6.6c.3.2 1.1.7 1.8 1.2s2 1.4 3 2.1c3.7 2.7 7.5 5.2 8.5 5.7.6.3 1.5.9 2.1 1.3 7.1 4.8 15.4 8.1 24.8 10 4.6 1 17.3 2.6 23.7 3.1 1.5.1 3.9.3 5.1.5 2.6.3 3.7.4 9.8.8 11.5.7 20.4 1.2 28.8 1.4 9 .2 28.8.2 37.3-.1 6.3-.3 8.6-.4 14.8-.9 1.3-.1 4.4-.3 6.9-.4 2.5-.2 5.3-.4 6.3-.5.9-.1 2.7-.3 4.1-.4 1.4-.2 2.7-.3 3-.4.8-.3-2.2-.1-11.3.6-1.4.1-3.6.3-4.7.4-2.5.2-11.2.7-16.6 1-6.1.2-37 .4-42.1.1-2.5-.1-6.9-.3-9.6-.4s-5.2-.2-5.6-.2c-.3-.1-1.6-.2-3-.2-4.3-.2-8.6-.5-10-.7-.6-.1-2.5-.3-4.1-.3-4.3-.2-5.8-.3-8.2-.6-2.3-.3-6.8-.8-10.2-1.1-5.8-.5-16.4-2.5-22.9-4.4-4.4-1.3-15-6.5-18.6-9.2-1.4-1.1-3.6-2.6-5.7-4-.8-.5-2.8-1.8-4.5-2.9-2.8-1.8-4-2.5-2.9-1.5m191.1 21.8c-.6.1-1.2.3-1.2.3-.2.2 1.9 0 2.6-.3.7-.2.2-.2-1.4 0m-5.8.6c-3.9.5-4.6.6-4.5.8s1.3.1 4.7-.3c3-.4 4-.7 2.3-.6-.7 0-1.8 0-2.5.1M196.5 98.8c-7.2.5-9 1.9-9 7.2 0 1.5-.1 5.4-.2 8.6s-.3 10.7-.4 16.7c-.2 16.7-1 16-3.6-3.2-.2-1.2-.4-3.1-.6-4.3-.2-1.1-.4-2.9-.6-3.9-1.3-9.5-1.9-11.4-3.3-11.9-2.7-.9-16.3 3.1-19 5.6-2 1.8-1.9 1.4-2.1 21.1-.2 39-.3 42.6-.8 42.8-.4.1-.6-.6-1-3.8-.3-1.6-.8-5.3-1.3-8.1-1.4-7.9-2-11.4-2.7-16.2-.4-2.4-1-5.4-1.2-6.7-.6-2.8-1-5.2-1.5-9.4-.8-6.9-1.6-9.4-2.8-9.8-.7-.1-3.4 1-5.7 2.4-.9.6-2.8 1.8-4.1 2.6-28.1 16.9-45.5 41.8-52.9 75.9-.3 1.3-.8 3.5-1.1 4.9-.6 2.9-.7 3.6-1.5 8.9-1.3 8.4-1.2 8-3.4 9-4.7 2.2-5.7 5.6-5.3 17.8.1 5.5.3 5.1-2 5.5-5.3.9-7 2.4-7.2 6.3-.5 5.5 1.4 7.5 15.1 16.8 2.3 1.6 4.8 3.3 5.5 3.8 2 1.4 7.2 4.9 9 6 .9.5 2.8 1.6 4.3 2.5 10.3 6.3 22.2 9.3 44.5 11.3 6.8.7 11.5 1.1 15.5 1.3 2.5.2 5.7.4 7.2.5 18.5 1.4 51.6 1.5 69.3.4 10-.6 18.7-1.3 22.6-1.6 6.6-.7 8.8-.9 10.6-1.2 2.1-.3 6.3-.9 9.5-1.4 2.2-.3 3.1-.5 6.1-1.2 5.3-1.2 12.9-3.9 16.8-5.9 2.3-1.3 12.9-7.9 14.7-9.3.8-.5 3.4-2.3 5.8-3.9 14.1-9.4 16.7-11.9 17.2-16.1.5-5-1.4-7.4-6.7-8.3-1-.2-2-.5-2.2-.6l-.5-.3.1-4.1c.4-12.2-.6-16-4.9-18.2-2.6-1.3-2.4-1-3.8-9.4-2.9-18.8-7.8-34.2-14.7-47.2-.7-1.3-1.3-2.4-1.3-2.5 0-.3-5.9-9.5-7.8-12.1-7.4-9.9-19-20.2-30.5-27.2-1.3-.8-3.2-1.9-4.2-2.6-6.9-4.3-8.2-3.8-8.9 3.8-.1.7-.4 2.5-.6 4-.3 1.5-.8 4.3-1.1 6.2-.8 5.2-1.3 8.2-2 11.7-.7 4.2-1.4 8.2-1.9 11.2-.2 1.4-.7 4.8-1.2 7.5-.4 2.7-.8 5.3-.9 5.7-.1 1-.4 1.3-.7.9-.5-.6-.9-22.2-.7-44.4 0-18.5 0-18.6-3.4-20.5-1.9-1-9.8-3.6-12.8-4.1-6.2-1.1-6.6-.7-7.8 8.7-.2.9-.5 3.1-.7 4.9-.3 1.7-.7 4.2-.8 5.3-.2 1.2-.4 2.6-.5 3.2-.1.5-.4 2.3-.6 3.9-.9 6.5-1.4 8.4-2 8.2-.5-.2-.5-.8-.5-5.5 0-2.5-.1-7.6-.2-11.4s-.3-10.3-.4-14.4c-.2-8.1-.2-8.6-1.4-10.1-1.6-2-6.6-2.7-14.8-2.3m8.9.5c6.5.8 6.7 1.2 6.9 12 .1 4.2.3 10.6.4 14.3s.2 8.8.2 11.4c0 5 .2 6 .9 6 1 0 1.5-2.1 2.3-8.1.1-.6.4-2.6.7-4.6s.8-5.2 1.1-7.1c.2-1.8.6-4.2.7-5.2.2-1.1.4-2.6.5-3.4.9-5.9 1.3-6.6 4.1-6.3 5.3.4 16.1 4 17.6 5.9 1.1 1.5 1.1.9 1.1 19.4 0 23.6.4 42.9.8 43.8.7 1.7 1.3.9 1.7-2.3.2-1.2.6-3.8.9-5.8s.8-4.9 1.1-6.6c.5-3 1-6 1.9-11.3.9-4.7 1.3-7.4 1.8-10.4 2.5-15.6 2.6-16 3-16.6.9-1.2 2.4-.6 9.5 3.8 19.2 11.7 32.1 25 41.2 42.6 7.6 14.6 11.6 27.7 15 48.8 1.1 6.8 1.1 6.7 3.4 7.9 4.4 2.2 5 4 5 15.5 0 8-.2 7.2 3 7.8 5.1 1.1 6.9 3.3 6.3 8-.5 4.2-2.2 5.8-17.5 16.1-2.4 1.7-5.5 3.7-6.8 4.6-2.1 1.5-4 2.6-9.8 6.2-9.5 5.9-21.5 9.2-40.6 11.1-8.5.8-11.5 1.1-18 1.5-3.8.3-8.1.6-9.5.7-9.2.7-42.4 1-54.3.4-7.6-.3-16-.7-18.8-1-1.3-.1-3.8-.2-5.6-.4-1.9-.1-4.7-.3-6.3-.4-1.6-.2-4.1-.4-5.5-.5-29.1-2.4-40.1-6.1-59.8-20.1-1-.7-2.3-1.6-2.8-1.9-15.8-10.6-17.7-12.5-17.7-17.6 0-4 1.6-5.6 6.5-6.5 1.9-.4 2.6-.7 2.7-1v-7.1c.1-11.5.7-13.2 5.3-15.3 2.2-1.1 2.1-.8 3.2-8.2.8-4.7 1.3-7.7 1.9-10.6 1.3-5.8 1.5-6.9 2.2-9.4 4.6-17.8 12.5-34 22.2-45.6 2.3-2.9 7.9-8.9 8.9-9.7.3-.2 1.5-1.3 2.8-2.4 6.4-5.7 9.7-8.1 17.9-13.1 5.1-3.2 8.6-4.9 9.3-4.6 1 .5 1.3 1.7 2.8 12.1.4 2.9.9 5.6 1 6 .2.7.7 3.8 2.5 14.8.3 2 .9 5.3 1.3 7.4.7 4.3 1.1 6.5 1.7 10.4.5 3.5.8 4 1.6 3 .4-.4.5-2.5.9-43.9.2-19.2.1-18.2 1.6-19.7 2.5-2.5 16.8-6.8 19.1-5.6 1.1.6 1.5 2.2 3.3 15 2.6 17.8 3.2 20.9 4.2 20.1.7-.6.8-1 .9-11.3.3-16.7.6-28.4.8-29.2.3-1 1.4-2.2 2.5-2.8 2.2-1.1 9.5-1.6 14.8-1m-11.1 62.1c-.8.5-.9.9-.9 3.9-.1 5-.2 5.2-3.6 6.3-10.9 3.6-16.7 13.5-14 24.4 1.8 7.4 8.8 12.2 21.5 14.6 10.2 1.9 13.3 3.8 13.3 8 .1 8.3-15.7 9.6-24 1.9-4-3.7-3.4-3.8-9 1.4-4.9 4.7-5.1 4.9-3.9 6.4 2.8 3.7 9.8 7.7 16.3 9.3 3.2.8 3.1.6 3.2 6.3.1 3.7.1 3.8.6 4.2l.4.5 5.6.1c7.5 0 6.9.4 7-5.4.1-4.9.1-4.8 2-5.3 12.7-3.5 17.9-9.2 18.5-19.9.5-11.2-6.7-17.2-25.3-21-7.7-1.6-10.7-3.7-10.7-7.5.1-8 13.3-9.1 22.3-1.9 2 1.5 2.3 1.7 3.3 1.3.8-.3 7.6-6.6 8-7.4 1.1-2.1-7.2-8.2-14.2-10.4-3.7-1.2-3.9-1.4-3.9-6.2 0-2.7 0-2.9-.4-3.4l-.5-.6h-5.5c-4.9 0-5.6.1-6.1.4m11.9.4c.2.3.2 1.1.2 3.3.1 4.8.3 5.2 3.4 6.2 6.4 1.9 14.8 7.5 14.8 9.8 0 .5-6.5 6.9-7.6 7.5-.9.4-1.3.3-3.2-1.3-7.5-6.1-20.5-6.3-22.5-.2-1.7 5.2 1.5 8.5 10.3 10.3 12 2.4 17.3 4.7 21.6 9.4 5.5 5.8 4.9 17.8-1.2 24-2.7 2.7-8 5.5-12.4 6.6-3.2.7-3.2.8-3.2 6.1 0 3.6-.1 4.1-.4 4.4-.4.4.2.4-6.3.4-6.6-.1-6 .5-6-4.8-.1-5.3-.1-5.4-3.6-6.3-3-.7-5.8-1.7-7.6-2.7-5.1-3-9.1-6.3-9.1-7.5 0-1 8.5-8.8 9.6-8.8.5 0 2.3 1.4 4.3 3.5 2.2 2.3 9.5 4.5 14 4.2 6.3-.3 9.7-2.9 9.7-7.3 0-4.2-3.5-6.5-11.9-8.1-11.3-2-17.9-5.2-21.1-10.2-4.2-6.7-2.9-17.6 2.9-22.9 3.5-3.2 5.4-4.3 10.1-5.9 2.5-.8 2.9-1.8 2.7-6-.1-2.5 0-3.5.7-3.8.9-.5 11.4-.4 11.8.1m-83.8 73.3c-1.8.8-3.3 3.2-3.5 5.4-.3 2.3-.8 13-.8 16 0 6.6 1 7.3 12 8.6 1.4.2 4.2.6 6.1.8 5.6.8 6.6.9 11.2 1.3 2.3.2 7.2.6 10.8.9 25.2 2.3 59.3 2.4 83.7.3 1.2-.1 2.8-.3 3.7-.3 4.1-.3 25.1-2.8 27.1-3.1 9.5-1.9 9.9-2.5 9.2-13.3-.2-1.8-.3-5.3-.5-7.7-.1-3.6-.2-4.5-.5-5.3-1.3-3.3-3.7-4.7-5.1-3.1-1 1.2-1.1 1.4-1.1 11.6 0 12.1.7 11-7.4 11.8-1.2.1-3.5.4-5.1.7-4.5.7-5.5.8-10 1.2-2.2.2-5.4.6-7.1.7-3 .3-7 .6-14.4 1.2-17.1 1.3-44.6 1.4-56.9.2-.6-.1-2.5-.2-4.2-.3-6-.4-10.8-.8-19-1.8-.9-.1-2.3-.2-3-.3-3.6-.2-11.5-1.3-12.8-1.6-.4-.1-2.2-.4-4-.6-6-.7-5.5.3-5.5-11.7 0-8.4-.1-9.8-.3-10.4-.6-1.3-1.5-1.7-2.6-1.2m1.9 1c.6.9.8 3.3.7 12.8-.1 9.8-.5 9 4.8 9.7 1.7.2 3.9.6 5 .8 3.2.7 4.5.9 9.8 1.4 4.9.4 12.9 1.2 15.2 1.5s9.1.8 20 1.4c9 .5 26.6.7 33.6.4 2.6-.1 6.6-.3 9-.4 3.9-.2 8.2-.5 10.8-.7.6-.1 2.2-.2 3.5-.3 6.2-.5 19.5-1.7 20.6-1.9.5 0 2.1-.3 3.7-.6 4.9-.7 7.2-1 8.8-1 2.5 0 4.3-.8 5-2 .2-.3.3-3.2.3-9.9 0-11.3.1-11.9 2.1-11.9 2.3 0 3.6 2.8 3.9 8.3.1 2.2.2 5.6.4 7.5.6 9.7.1 11.2-4.6 12.4-.8.1-1.9.4-2.5.6-1.9.4-4.3.8-8.1 1.2-2 .2-4.8.6-6 .7-7.5.9-15.7 1.7-23.3 2.3-1.6.1-4.2.2-5.8.3-11.3.8-40.3 1.1-52.8.5-6.1-.3-11-.6-13.6-.8-19.1-1.7-22.7-2-29.9-3.1-1.1-.1-3-.3-4.1-.5-10-1-11.9-1.9-12.3-6.1-.2-2.2.4-16.2.8-18.8.6-3.2 3.8-5.7 5-3.8"/></svg>